<?xml version="1.0" ?><!DOCTYPE svg  PUBLIC '-//W3C//DTD SVG 1.1//EN'  'http://www.w3.org/Graphics/SVG/1.1/DTD/svg11.dtd'><svg enable-background="new 0 0 1024 1024" height="1024px" id="Layer_1" version="1.1" viewBox="0 0 1024 1024" width="1024px" xml:space="preserve" xmlns="http://www.w3.org/2000/svg" xmlns:xlink="http://www.w3.org/1999/xlink"><g><path clip-rule="evenodd" d="M698.44,222.769c-51.163,39.134-101.954,78.037-152.806,116.865    c-64.785,49.47-129.53,98.995-194.541,148.168c-8.614,6.517-11.543,12.923-9.233,23.95c7.134,34.07,0.273,66.178-17.473,97.15    c3.178,1.623,6.025,3.17,8.946,4.56c123.325,58.73,246.684,117.388,369.928,176.284c8.962,4.284,15.924,4.304,23.876-2.427    c40.493-34.267,85.486-41.74,134.674-21.089c48.869,20.521,74.321,58.249,79.451,110.146    c7.212,73.003-39.093,133.523-111.096,145.969c-68.385,11.82-139.308-41.242-148.199-110.46    c-2.573-20.037-1.576-39.658,3.601-59.06c1.578-5.911,0.352-8.838-5.445-11.579C550.872,780.097,421.704,718.764,292.602,657.3    c-7.721-3.676-14.379-3.231-22.078,0.162c-51.746,22.818-100.626,17.308-143.144-19.994    c-44.041-38.64-54.686-88.722-37.724-143.504c16.559-53.485,55.417-83.152,110.325-90.721c37.448-5.16,70.438,6.872,98.98,31.368    c3.055,2.623,6.019,5.347,9.681,8.608c16.679-12.679,33.229-25.207,49.724-37.805c97.709-74.626,195.274-149.438,293.269-223.687    c12.321-9.334,17.21-18.307,15.11-34.629C658.003,79.112,704.646,15.631,771.084,2.591    c68.72-13.488,133.149,26.764,151.554,95.693c14.011,52.477,1.009,98.688-38.753,135.282    c-37.396,34.414-82.044,43.298-130.588,27.347C731.834,253.862,713.963,240.659,698.44,222.769z" fill-rule="evenodd"/></g></svg>